<?xml version="1.0" encoding="utf-8"?>
<!-- Generator: Adobe Illustrator 19.1.0, SVG Export Plug-In . SVG Version: 6.00 Build 0)  -->
<svg version="1.1" id="圖層_1" xmlns="http://www.w3.org/2000/svg" xmlns:xlink="http://www.w3.org/1999/xlink" x="0px" y="0px"
	 viewBox="-296 382 30 30" style="enable-background:new -296 382 30 30;" xml:space="preserve">
<style type="text/css">
	.st0{fill:none;}
</style>
<path class="st0" d="M-293,385h24v24h-24V385z"/>
<path d="M-276,395.8c2.1,0,3.7-1.7,3.7-3.8s-1.7-3.8-3.7-3.8s-3.8,1.7-3.8,3.8S-278.1,395.8-276,395.8z M-286,395.8
	c2.1,0,3.7-1.7,3.7-3.8s-1.7-3.8-3.7-3.8s-3.8,1.7-3.8,3.8S-288.1,395.8-286,395.8z M-286,398.2c-2.9,0-8.8,1.5-8.8,4.4v3.1h17.5
	v-3.1C-277.2,399.7-283.1,398.2-286,398.2z M-276,398.2c-0.4,0-0.8,0-1.2,0.1c1.4,1,2.5,2.5,2.5,4.3v3.1h7.5v-3.1
	C-267.2,399.7-273.1,398.2-276,398.2z"/>
</svg>
