<?xml version="1.0" encoding="utf-8"?>
<!-- Generator: Adobe Illustrator 19.1.0, SVG Export Plug-In . SVG Version: 6.00 Build 0)  -->
<svg version="1.1" id="圖層_1" xmlns="http://www.w3.org/2000/svg" xmlns:xlink="http://www.w3.org/1999/xlink" x="0px" y="0px"
	 viewBox="-296 382 30 30" style="enable-background:new -296 382 30 30;" xml:space="preserve">
<style type="text/css">
	.st0{fill:none;}
</style>
<path class="st0" d="M-293,385h24v24h-24V385z"/>
<path d="M-271.7,398.2c0.1-0.4,0.1-0.8,0.1-1.2s0-0.8-0.1-1.2l2.6-2.1c0.2-0.2,0.3-0.5,0.1-0.8l-2.5-4.3c-0.1-0.3-0.5-0.4-0.8-0.3
	l-3.1,1.2c-0.6-0.5-1.4-0.9-2.1-1.2l-0.5-3.3c0-0.3-0.3-0.5-0.6-0.5h-5c-0.3,0-0.6,0.2-0.6,0.5l-0.5,3.3c-0.8,0.3-1.5,0.7-2.1,1.2
	l-3.1-1.2c-0.3-0.1-0.6,0-0.8,0.3l-2.5,4.3c-0.2,0.3-0.1,0.6,0.1,0.8l2.6,2.1c-0.1,0.4-0.1,0.8-0.1,1.2s0,0.8,0.1,1.2l-2.6,2.1
	c-0.2,0.2-0.3,0.5-0.1,0.8l2.5,4.3c0.1,0.3,0.5,0.4,0.8,0.3l3.1-1.2c0.6,0.5,1.4,0.9,2.1,1.2l0.5,3.3c0,0.3,0.3,0.5,0.6,0.5h5
	c0.3,0,0.6-0.2,0.6-0.5l0.5-3.3c0.8-0.3,1.5-0.7,2.1-1.2l3.1,1.2c0.3,0.1,0.6,0,0.8-0.3l2.5-4.3c0.1-0.3,0.1-0.6-0.1-0.8
	L-271.7,398.2z M-281,401.4c-2.4,0-4.4-2-4.4-4.4s2-4.4,4.4-4.4c2.4,0,4.4,2,4.4,4.4S-278.6,401.4-281,401.4z"/>
</svg>
